<?xml version="1.0" encoding="UTF-8"?>
<svg version="1.1" xmlns="http://www.w3.org/2000/svg" width="768" height="768">
<path d="M0 0 C1.32257813 -0.04350586 1.32257813 -0.04350586 2.671875 -0.08789062 C8.75079339 -0.14668969 12.351298 0.62591273 17.25 4.3125 C20.30411449 8.12356097 21.2276414 12.43540422 22.25 17.125 C22.42023682 17.87128662 22.59047363 18.61757324 22.76586914 19.38647461 C23.73508779 23.71036544 24.58034299 28.04423641 25.34350586 32.40869141 C27.32861737 43.75580861 30.35091099 54.80477766 35.2890625 65.25390625 C36.34425737 67.51442535 37.27115903 69.80482467 38.1875 72.125 C41.30824863 79.99418183 44.41464001 87.82504389 48.30078125 95.3515625 C49.32589992 97.46929736 50.16353517 99.61358371 51 101.8125 C58.42304915 120.74707459 69.23780771 138.8031202 79.51171875 156.29296875 C81.07068943 159.00102344 82.54438519 161.73559033 84 164.5 C87.54002181 171.0715852 91.66837916 177.25743827 95.76171875 183.4921875 C97.6639677 186.39323065 99.46703858 189.33639521 101.25 192.3125 C115.12327233 214.52755543 115.12327233 214.52755543 131.84814453 234.58398438 C135.25 238.12023718 135.25 238.12023718 135.25 240.3125 C135.86875 240.56 136.4875 240.8075 137.125 241.0625 C139.65358627 242.54990369 139.96839004 243.74928009 141.25 246.3125 C141.83007812 246.5909375 142.41015625 246.869375 143.0078125 247.15625 C145.86995026 248.6321956 147.80281007 250.58206834 150.125 252.8125 C156.41966084 258.62812791 163.15214029 263.52479275 170.25 268.3125 C171.03375 268.84359375 171.8175 269.3746875 172.625 269.921875 C190.46658589 281.26402603 210.45098922 287.75782688 230.5 293.9296875 C254.37353926 301.29835399 254.37353926 301.29835399 260.1640625 305.80078125 C263.09346052 307.92377195 266.31861963 309.07487048 269.6875 310.3125 C270.39181152 310.57595215 271.09612305 310.8394043 271.82177734 311.11083984 C276.29134588 312.73567961 280.71187075 313.96087224 285.375 314.9375 C291.58581934 316.24423179 296.11416696 318.30596527 300.25 323.3125 C301.86456863 328.1562059 301.47615798 333.11510983 301.5 338.1875 C301.520625 339.27675781 301.54125 340.36601562 301.5625 341.48828125 C301.56765625 342.54144531 301.5728125 343.59460938 301.578125 344.6796875 C301.5874707 345.63987793 301.59681641 346.60006836 301.60644531 347.58935547 C301.04993959 351.84090676 299.10902123 354.45347877 296.125 357.4375 C290.71472641 360.9659393 284.66899826 362.22750237 278.4375 363.6875 C269.55426839 365.85441857 261.81873034 369.2118339 254.25 374.3125 C246.61330876 377.80291546 238.55519686 380.228292 230.5625 382.75 C228.06242371 383.54924056 225.56242292 384.34871734 223.0625 385.1484375 C219.27494711 386.35497298 215.48528288 387.55266995 211.6875 388.7265625 C186.89969611 396.5795952 165.07556197 409.84028853 146.23828125 427.6328125 C144.25 429.3125 144.25 429.3125 141.25 430.3125 C140.940625 430.951875 140.63125 431.59125 140.3125 432.25 C138.99215782 434.81301718 137.7685326 435.0532337 135.25 436.3125 C134.97285156 436.89128906 134.69570313 437.47007812 134.41015625 438.06640625 C132.91943294 440.95248674 130.93745803 442.90849438 128.6875 445.25 C120.72878797 453.76904233 114.64103517 463.61528805 108.42041016 473.42626953 C106.42217858 476.56056049 104.35493637 479.57475567 102.0625 482.5 C99.19481034 486.20835485 97.07143886 490.1836941 94.8828125 494.3203125 C91.89977326 499.78683895 88.535936 505.0247112 85.25 510.3125 C81.8938411 515.80653997 78.62797805 521.33645707 75.53222656 526.98168945 C74.35783313 529.1164827 73.16837123 531.24208922 71.9765625 533.3671875 C68.94708563 538.81800389 66.06415796 544.34240878 63.1875 549.875 C62.67123047 550.86435547 62.15496094 551.85371094 61.62304688 552.87304688 C55.87176926 563.790766 55.87176926 563.790766 50.875 575.0625 C49.14508815 579.28880772 47.26311046 583.36993088 45.1875 587.4375 C40.84063189 595.99816883 37.65347642 604.85990371 34.49609375 613.91796875 C33.65611604 616.20618388 32.7380593 618.46703293 31.75 620.6953125 C30.07065168 624.74499101 28.9018715 628.76148367 27.8125 633 C27.59932129 633.81436523 27.38614258 634.62873047 27.16650391 635.46777344 C25.38293215 642.43979665 23.94407077 649.46532428 22.68188477 656.54956055 C21.26847128 664.17540113 19.37832933 670.10342007 13.25 675.3125 C9.00437615 676.72770795 4.94839532 676.57706471 0.5 676.625 C-0.38171875 676.65400391 -1.2634375 676.68300781 -2.171875 676.71289062 C-8.25079339 676.77168969 -11.851298 675.99908727 -16.75 672.3125 C-19.80411449 668.50143903 -20.7276414 664.18959578 -21.75 659.5 C-21.92023682 658.75371338 -22.09047363 658.00742676 -22.26586914 657.23852539 C-23.23508779 652.91463456 -24.08034299 648.58076359 -24.84350586 644.21630859 C-26.82861737 632.86919139 -29.85091099 621.82022234 -34.7890625 611.37109375 C-35.84425737 609.11057465 -36.77115903 606.82017533 -37.6875 604.5 C-40.80824863 596.63081817 -43.91464001 588.79995611 -47.80078125 581.2734375 C-48.82589992 579.15570264 -49.66353517 577.01141629 -50.5 574.8125 C-57.92304915 555.87792541 -68.73780771 537.8218798 -79.01171875 520.33203125 C-80.57068943 517.62397656 -82.04438519 514.88940967 -83.5 512.125 C-87.04002181 505.5534148 -91.16837916 499.36756173 -95.26171875 493.1328125 C-97.1639677 490.23176935 -98.96703858 487.28860479 -100.75 484.3125 C-114.62327233 462.09744457 -114.62327233 462.09744457 -131.34814453 442.04101562 C-134.75 438.50476282 -134.75 438.50476282 -134.75 436.3125 C-135.36875 436.065 -135.9875 435.8175 -136.625 435.5625 C-139.15358627 434.07509631 -139.46839004 432.87571991 -140.75 430.3125 C-141.33007812 430.0340625 -141.91015625 429.755625 -142.5078125 429.46875 C-145.36995026 427.9928044 -147.30281007 426.04293166 -149.625 423.8125 C-155.91966084 417.99687209 -162.65214029 413.10020725 -169.75 408.3125 C-170.53375 407.78140625 -171.3175 407.2503125 -172.125 406.703125 C-189.96658589 395.36097397 -209.95098922 388.86717312 -230 382.6953125 C-253.87353926 375.32664601 -253.87353926 375.32664601 -259.6640625 370.82421875 C-262.59346052 368.70122805 -265.81861963 367.55012952 -269.1875 366.3125 C-269.89181152 366.04904785 -270.59612305 365.7855957 -271.32177734 365.51416016 C-275.79134588 363.88932039 -280.21187075 362.66412776 -284.875 361.6875 C-291.08581934 360.38076821 -295.61416696 358.31903473 -299.75 353.3125 C-301.36456863 348.4687941 -300.97615798 343.50989017 -301 338.4375 C-301.020625 337.34824219 -301.04125 336.25898438 -301.0625 335.13671875 C-301.06765625 334.08355469 -301.0728125 333.03039062 -301.078125 331.9453125 C-301.0874707 330.98512207 -301.09681641 330.02493164 -301.10644531 329.03564453 C-300.54993959 324.78409324 -298.60902123 322.17152123 -295.625 319.1875 C-290.21472641 315.6590607 -284.16899826 314.39749763 -277.9375 312.9375 C-269.05426839 310.77058143 -261.31873034 307.4131661 -253.75 302.3125 C-246.11330876 298.82208454 -238.05519686 296.396708 -230.0625 293.875 C-227.56242371 293.07575944 -225.06242292 292.27628266 -222.5625 291.4765625 C-218.77494711 290.27002702 -214.98528288 289.07233005 -211.1875 287.8984375 C-186.39969611 280.0454048 -164.57556197 266.78471147 -145.73828125 248.9921875 C-143.75 247.3125 -143.75 247.3125 -140.75 246.3125 C-140.440625 245.673125 -140.13125 245.03375 -139.8125 244.375 C-138.49215782 241.81198282 -137.2685326 241.5717663 -134.75 240.3125 C-134.47285156 239.73371094 -134.19570312 239.15492188 -133.91015625 238.55859375 C-132.41943294 235.67251326 -130.43745803 233.71650562 -128.1875 231.375 C-120.22878797 222.85595767 -114.14103517 213.00971195 -107.92041016 203.19873047 C-105.92217858 200.06443951 -103.85493637 197.05024433 -101.5625 194.125 C-98.69481034 190.41664515 -96.57143886 186.4413059 -94.3828125 182.3046875 C-91.39977326 176.83816105 -88.035936 171.6002888 -84.75 166.3125 C-81.3938411 160.81846003 -78.12797805 155.28854293 -75.03222656 149.64331055 C-73.85783313 147.5085173 -72.66837123 145.38291078 -71.4765625 143.2578125 C-68.44708563 137.80699611 -65.56415796 132.28259122 -62.6875 126.75 C-62.17123047 125.76064453 -61.65496094 124.77128906 -61.12304688 123.75195312 C-55.37176926 112.834234 -55.37176926 112.834234 -50.375 101.5625 C-48.64508815 97.33619228 -46.76311046 93.25506912 -44.6875 89.1875 C-40.34063189 80.62683117 -37.15347642 71.76509629 -33.99609375 62.70703125 C-33.15611604 60.41881612 -32.2380593 58.15796707 -31.25 55.9296875 C-29.57065168 51.88000899 -28.4018715 47.86351633 -27.3125 43.625 C-27.09932129 42.81063477 -26.88614258 41.99626953 -26.66650391 41.15722656 C-24.88293215 34.18520335 -23.44407077 27.15967572 -22.18188477 20.07543945 C-20.76847128 12.44959887 -18.87832933 6.52157993 -12.75 1.3125 C-8.50437615 -0.10270795 -4.44839532 0.04793529 0 0 Z " fill="#FEFEFE" transform="translate(383.75,45.6875)"/>
<path d="M0 0 C1.32257813 -0.04350586 1.32257813 -0.04350586 2.671875 -0.08789062 C8.75079339 -0.14668969 12.351298 0.62591273 17.25 4.3125 C20.30411449 8.12356097 21.2276414 12.43540422 22.25 17.125 C22.42023682 17.87128662 22.59047363 18.61757324 22.76586914 19.38647461 C23.73508779 23.71036544 24.58034299 28.04423641 25.34350586 32.40869141 C27.32861737 43.75580861 30.35091099 54.80477766 35.2890625 65.25390625 C36.34425737 67.51442535 37.27115903 69.80482467 38.1875 72.125 C41.30824863 79.99418183 44.41464001 87.82504389 48.30078125 95.3515625 C49.32589992 97.46929736 50.16353517 99.61358371 51 101.8125 C58.42304915 120.74707459 69.23780771 138.8031202 79.51171875 156.29296875 C81.07068943 159.00102344 82.54438519 161.73559033 84 164.5 C87.54002181 171.0715852 91.66837916 177.25743827 95.76171875 183.4921875 C97.6639677 186.39323065 99.46703858 189.33639521 101.25 192.3125 C115.12327233 214.52755543 115.12327233 214.52755543 131.84814453 234.58398438 C135.25 238.12023718 135.25 238.12023718 135.25 240.3125 C135.86875 240.56 136.4875 240.8075 137.125 241.0625 C139.65358627 242.54990369 139.96839004 243.74928009 141.25 246.3125 C141.83007812 246.5909375 142.41015625 246.869375 143.0078125 247.15625 C145.86995026 248.6321956 147.80281007 250.58206834 150.125 252.8125 C156.41966084 258.62812791 163.15214029 263.52479275 170.25 268.3125 C171.03375 268.84359375 171.8175 269.3746875 172.625 269.921875 C190.46658589 281.26402603 210.45098922 287.75782688 230.5 293.9296875 C254.37353926 301.29835399 254.37353926 301.29835399 260.1640625 305.80078125 C263.09346052 307.92377195 266.31861963 309.07487048 269.6875 310.3125 C270.39181152 310.57595215 271.09612305 310.8394043 271.82177734 311.11083984 C276.29134588 312.73567961 280.71187075 313.96087224 285.375 314.9375 C291.58581934 316.24423179 296.11416696 318.30596527 300.25 323.3125 C301.86456863 328.1562059 301.47615798 333.11510983 301.5 338.1875 C301.520625 339.27675781 301.54125 340.36601562 301.5625 341.48828125 C301.56765625 342.54144531 301.5728125 343.59460938 301.578125 344.6796875 C301.5874707 345.63987793 301.59681641 346.60006836 301.60644531 347.58935547 C301.04993959 351.84090676 299.10902123 354.45347877 296.125 357.4375 C290.71472641 360.9659393 284.66899826 362.22750237 278.4375 363.6875 C269.55426839 365.85441857 261.81873034 369.2118339 254.25 374.3125 C246.61330876 377.80291546 238.55519686 380.228292 230.5625 382.75 C228.06242371 383.54924056 225.56242292 384.34871734 223.0625 385.1484375 C219.27494711 386.35497298 215.48528288 387.55266995 211.6875 388.7265625 C186.89969611 396.5795952 165.07556197 409.84028853 146.23828125 427.6328125 C144.25 429.3125 144.25 429.3125 141.25 430.3125 C140.940625 430.951875 140.63125 431.59125 140.3125 432.25 C138.99215782 434.81301718 137.7685326 435.0532337 135.25 436.3125 C134.97285156 436.89128906 134.69570313 437.47007812 134.41015625 438.06640625 C132.91943294 440.95248674 130.93745803 442.90849438 128.6875 445.25 C120.72878797 453.76904233 114.64103517 463.61528805 108.42041016 473.42626953 C106.42217858 476.56056049 104.35493637 479.57475567 102.0625 482.5 C99.19481034 486.20835485 97.07143886 490.1836941 94.8828125 494.3203125 C91.89977326 499.78683895 88.535936 505.0247112 85.25 510.3125 C81.8938411 515.80653997 78.62797805 521.33645707 75.53222656 526.98168945 C74.35783313 529.1164827 73.16837123 531.24208922 71.9765625 533.3671875 C68.94708563 538.81800389 66.06415796 544.34240878 63.1875 549.875 C62.67123047 550.86435547 62.15496094 551.85371094 61.62304688 552.87304688 C55.87176926 563.790766 55.87176926 563.790766 50.875 575.0625 C49.14508815 579.28880772 47.26311046 583.36993088 45.1875 587.4375 C40.84063189 595.99816883 37.65347642 604.85990371 34.49609375 613.91796875 C33.65611604 616.20618388 32.7380593 618.46703293 31.75 620.6953125 C30.07065168 624.74499101 28.9018715 628.76148367 27.8125 633 C27.59932129 633.81436523 27.38614258 634.62873047 27.16650391 635.46777344 C25.38293215 642.43979665 23.94407077 649.46532428 22.68188477 656.54956055 C21.26847128 664.17540113 19.37832933 670.10342007 13.25 675.3125 C9.00437615 676.72770795 4.94839532 676.57706471 0.5 676.625 C-0.38171875 676.65400391 -1.2634375 676.68300781 -2.171875 676.71289062 C-8.25079339 676.77168969 -11.851298 675.99908727 -16.75 672.3125 C-19.80411449 668.50143903 -20.7276414 664.18959578 -21.75 659.5 C-21.92023682 658.75371338 -22.09047363 658.00742676 -22.26586914 657.23852539 C-23.23508779 652.91463456 -24.08034299 648.58076359 -24.84350586 644.21630859 C-26.82861737 632.86919139 -29.85091099 621.82022234 -34.7890625 611.37109375 C-35.84425737 609.11057465 -36.77115903 606.82017533 -37.6875 604.5 C-40.80824863 596.63081817 -43.91464001 588.79995611 -47.80078125 581.2734375 C-48.82589992 579.15570264 -49.66353517 577.01141629 -50.5 574.8125 C-57.92304915 555.87792541 -68.73780771 537.8218798 -79.01171875 520.33203125 C-80.57068943 517.62397656 -82.04438519 514.88940967 -83.5 512.125 C-87.04002181 505.5534148 -91.16837916 499.36756173 -95.26171875 493.1328125 C-97.1639677 490.23176935 -98.96703858 487.28860479 -100.75 484.3125 C-114.62327233 462.09744457 -114.62327233 462.09744457 -131.34814453 442.04101562 C-134.75 438.50476282 -134.75 438.50476282 -134.75 436.3125 C-135.36875 436.065 -135.9875 435.8175 -136.625 435.5625 C-139.15358627 434.07509631 -139.46839004 432.87571991 -140.75 430.3125 C-141.33007812 430.0340625 -141.91015625 429.755625 -142.5078125 429.46875 C-145.36995026 427.9928044 -147.30281007 426.04293166 -149.625 423.8125 C-155.91966084 417.99687209 -162.65214029 413.10020725 -169.75 408.3125 C-170.53375 407.78140625 -171.3175 407.2503125 -172.125 406.703125 C-189.96658589 395.36097397 -209.95098922 388.86717312 -230 382.6953125 C-253.87353926 375.32664601 -253.87353926 375.32664601 -259.6640625 370.82421875 C-262.59346052 368.70122805 -265.81861963 367.55012952 -269.1875 366.3125 C-269.89181152 366.04904785 -270.59612305 365.7855957 -271.32177734 365.51416016 C-275.79134588 363.88932039 -280.21187075 362.66412776 -284.875 361.6875 C-291.08581934 360.38076821 -295.61416696 358.31903473 -299.75 353.3125 C-301.36456863 348.4687941 -300.97615798 343.50989017 -301 338.4375 C-301.020625 337.34824219 -301.04125 336.25898438 -301.0625 335.13671875 C-301.06765625 334.08355469 -301.0728125 333.03039062 -301.078125 331.9453125 C-301.0874707 330.98512207 -301.09681641 330.02493164 -301.10644531 329.03564453 C-300.54993959 324.78409324 -298.60902123 322.17152123 -295.625 319.1875 C-290.21472641 315.6590607 -284.16899826 314.39749763 -277.9375 312.9375 C-269.05426839 310.77058143 -261.31873034 307.4131661 -253.75 302.3125 C-246.11330876 298.82208454 -238.05519686 296.396708 -230.0625 293.875 C-227.56242371 293.07575944 -225.06242292 292.27628266 -222.5625 291.4765625 C-218.77494711 290.27002702 -214.98528288 289.07233005 -211.1875 287.8984375 C-186.39969611 280.0454048 -164.57556197 266.78471147 -145.73828125 248.9921875 C-143.75 247.3125 -143.75 247.3125 -140.75 246.3125 C-140.440625 245.673125 -140.13125 245.03375 -139.8125 244.375 C-138.49215782 241.81198282 -137.2685326 241.5717663 -134.75 240.3125 C-134.47285156 239.73371094 -134.19570312 239.15492188 -133.91015625 238.55859375 C-132.41943294 235.67251326 -130.43745803 233.71650562 -128.1875 231.375 C-120.22878797 222.85595767 -114.14103517 213.00971195 -107.92041016 203.19873047 C-105.92217858 200.06443951 -103.85493637 197.05024433 -101.5625 194.125 C-98.69481034 190.41664515 -96.57143886 186.4413059 -94.3828125 182.3046875 C-91.39977326 176.83816105 -88.035936 171.6002888 -84.75 166.3125 C-81.3938411 160.81846003 -78.12797805 155.28854293 -75.03222656 149.64331055 C-73.85783313 147.5085173 -72.66837123 145.38291078 -71.4765625 143.2578125 C-68.44708563 137.80699611 -65.56415796 132.28259122 -62.6875 126.75 C-62.17123047 125.76064453 -61.65496094 124.77128906 -61.12304688 123.75195312 C-55.37176926 112.834234 -55.37176926 112.834234 -50.375 101.5625 C-48.64508815 97.33619228 -46.76311046 93.25506912 -44.6875 89.1875 C-40.34063189 80.62683117 -37.15347642 71.76509629 -33.99609375 62.70703125 C-33.15611604 60.41881612 -32.2380593 58.15796707 -31.25 55.9296875 C-29.57065168 51.88000899 -28.4018715 47.86351633 -27.3125 43.625 C-27.09932129 42.81063477 -26.88614258 41.99626953 -26.66650391 41.15722656 C-24.88293215 34.18520335 -23.44407077 27.15967572 -22.18188477 20.07543945 C-20.76847128 12.44959887 -18.87832933 6.52157993 -12.75 1.3125 C-8.50437615 -0.10270795 -4.44839532 0.04793529 0 0 Z M-0.75 66.3125 C-2.8961197 71.62384652 -4.98928627 76.94832474 -7 82.3125 C-9.95206723 90.03188076 -13.34431394 97.54667513 -16.75439453 105.07177734 C-17.55500096 106.87363261 -18.32709325 108.68814394 -19.08984375 110.50634766 C-20.95900251 114.87566341 -23.06414467 119.12078815 -25.1796875 123.375 C-25.81958618 124.66538681 -25.81958618 124.66538681 -26.47241211 125.98184204 C-39.17453522 151.54805817 -52.55016755 176.2474104 -67.87255859 200.35595703 C-69.73142267 203.28324493 -71.57965581 206.21700923 -73.42578125 209.15234375 C-83.38578351 224.95432238 -93.33838192 240.31720365 -105.75 254.3125 C-106.96042969 255.68921875 -106.96042969 255.68921875 -108.1953125 257.09375 C-120.09349593 270.48424797 -120.09349593 270.48424797 -123.75 272.3125 C-123.75 272.9725 -123.75 273.6325 -123.75 274.3125 C-124.31460938 274.55613281 -124.87921875 274.79976562 -125.4609375 275.05078125 C-128.17689068 276.54779981 -130.12279238 278.36883937 -132.375 280.5 C-143.04529324 290.25124608 -155.68372477 298.1636646 -168.75 304.3125 C-168.75 304.9725 -168.75 305.6325 -168.75 306.3125 C-170.07 306.3125 -171.39 306.3125 -172.75 306.3125 C-172.75 306.9725 -172.75 307.6325 -172.75 308.3125 C-173.53375 308.374375 -174.3175 308.43625 -175.125 308.5 C-178.31247289 309.21443358 -180.23993263 309.99463073 -183.0625 311.5 C-187.67203389 313.9058838 -192.35300707 315.72395674 -197.25 317.4375 C-197.93747314 317.67879639 -198.62494629 317.92009277 -199.33325195 318.16870117 C-203.87950426 319.73480504 -208.4633993 321.13959088 -213.07226562 322.50878906 C-217.98580361 323.98356724 -222.87015835 325.54276708 -227.75 327.125 C-228.76578125 327.44275391 -229.7815625 327.76050781 -230.828125 328.08789062 C-237.74939081 330.34617543 -243.67496593 333.30307831 -249.75 337.3125 C-248.38704454 341.40136639 -246.68760862 341.70989059 -242.875 343.625 C-234.93796889 347.53652643 -226.66007979 350.04324417 -218.20214844 352.56542969 C-214.15069176 353.79974445 -210.13867654 355.14874016 -206.125 356.5 C-205.41569336 356.7379126 -204.70638672 356.9758252 -203.97558594 357.22094727 C-202.5995743 357.68269071 -201.22415727 358.14621016 -199.84936523 358.61157227 C-198.38647892 359.09999494 -196.919456 359.57612699 -195.44946289 360.04272461 C-189.76857537 361.86368226 -184.70761431 364.28036996 -179.44921875 367.10546875 C-176.63421244 368.58464748 -176.63421244 368.58464748 -172.75 368.3125 C-172.75 368.9725 -172.75 369.6325 -172.75 370.3125 C-171.43 370.3125 -170.11 370.3125 -168.75 370.3125 C-168.75 370.9725 -168.75 371.6325 -168.75 372.3125 C-167.86441406 372.75078125 -166.97882813 373.1890625 -166.06640625 373.640625 C-151.97166431 380.78817729 -139.10615656 389.5239266 -127.75390625 400.546875 C-125.9450278 402.53286312 -125.9450278 402.53286312 -123.75 402.3125 C-123.255 403.7975 -123.255 403.7975 -122.75 405.3125 C-121.19294806 406.89090572 -121.19294806 406.89090572 -119.25 408.4375 C-101.23145799 423.79019711 -88.26872528 443.44266279 -75.75 463.3125 C-74.5628032 465.16686082 -73.37531972 467.02103814 -72.1875 468.875 C-68.31096894 474.98186401 -64.5121691 481.13465475 -60.75 487.3125 C-60.30495117 488.04114258 -59.85990234 488.76978516 -59.40136719 489.52050781 C-48.96475972 506.63654407 -39.20439286 523.91728073 -30.67919922 542.07055664 C-28.04664458 547.66437848 -25.29487171 553.14766234 -22.3125 558.5625 C-19.57435728 563.58056563 -17.3754172 568.50021783 -15.63671875 573.9453125 C-14.80572718 576.38876686 -14.80572718 576.38876686 -13.296875 578.69921875 C-11.51378628 581.71155804 -10.44345051 584.68872522 -9.3125 588 C-7.27913017 593.84287596 -5.09470421 599.58896439 -2.75 605.3125 C-2.08212139 606.97868138 -1.41515078 608.64522778 -0.75 610.3125 C-0.09 610.3125 0.57 610.3125 1.25 610.3125 C1.62511719 609.22453125 2.00023437 608.1365625 2.38671875 607.015625 C6.27046071 595.82799608 10.13299093 584.83148346 16.0859375 574.55078125 C17.29978716 572.21676832 18.11640456 569.93531837 18.9375 567.4375 C21.07031389 561.2703273 24.1137035 555.70514291 27.20068359 549.97802734 C30.35847221 544.09072162 33.25450622 538.12320535 36.0625 532.0625 C44.9892938 512.99861965 56.02606028 495.0905651 67.25 477.3125 C67.8186377 476.40612793 68.38727539 475.49975586 68.97314453 474.56591797 C91.29196799 438.99159456 91.29196799 438.99159456 103.25 425.3125 C103.92933594 424.52359375 104.60867188 423.7346875 105.30859375 422.921875 C114.18108169 412.82840248 123.73593338 402.71653953 134.25 394.3125 C134.77190918 393.89323242 135.29381836 393.47396484 135.83154297 393.04199219 C143.69975915 386.77747518 151.79506949 381.17090037 160.5 376.125 C161.71490112 375.42068848 161.71490112 375.42068848 162.9543457 374.70214844 C166.38366882 372.76199267 169.36919023 371.13227507 173.25 370.3125 C173.25 369.6525 173.25 368.9925 173.25 368.3125 C173.97316406 368.19390625 174.69632813 368.0753125 175.44140625 367.953125 C178.29907565 367.30130611 180.55724762 366.34317758 183.1875 365.0625 C192.64074365 360.67929191 202.47385398 357.54386495 212.39453125 354.41430664 C231.92760931 348.2983377 231.92760931 348.2983377 250.25 339.3125 C250.25 338.6525 250.25 337.9925 250.25 337.3125 C247.75252977 336.03648669 245.25222064 334.76663829 242.75 333.5 C242.05390625 333.14357422 241.3578125 332.78714844 240.640625 332.41992188 C230.60935158 327.35784408 220.10478808 324.44578367 209.3359375 321.36132812 C198.92921963 318.33381323 189.47839483 314.58198748 179.9140625 309.484375 C177.12483289 308.04406756 177.12483289 308.04406756 173.25 308.3125 C173.25 307.6525 173.25 306.9925 173.25 306.3125 C171.93 306.3125 170.61 306.3125 169.25 306.3125 C169.25 305.6525 169.25 304.9925 169.25 304.3125 C168.44175781 303.91417969 167.63351562 303.51585937 166.80078125 303.10546875 C165.73214844 302.57566406 164.66351562 302.04585937 163.5625 301.5 C162.50675781 300.97792969 161.45101563 300.45585937 160.36328125 299.91796875 C157.25 298.3125 157.25 298.3125 154.48046875 296.61328125 C152.39239839 295.14457435 152.39239839 295.14457435 150.25 295.3125 C150.25 294.6525 150.25 293.9925 150.25 293.3125 C148.68745395 292.24863886 147.07140432 291.26313524 145.4375 290.3125 C138.99227811 286.33601349 133.74429694 281.48559189 128.25 276.3125 C126.98493116 275.22244069 125.71455763 274.13848898 124.4375 273.0625 C99.57045116 251.30383226 82.40277707 223.23196001 65.25 195.3125 C64.67185547 194.3726123 64.09371094 193.43272461 63.49804688 192.46435547 C50.74874451 171.66127456 39.19764633 150.35728252 28.25 128.5625 C27.88642395 127.8407962 27.5228479 127.11909241 27.14825439 126.3755188 C22.84025873 117.80781242 18.83090141 109.2150633 15.25 100.3125 C14.54289899 98.62859218 13.83212274 96.94622161 13.1171875 95.265625 C12.78589844 94.48316406 12.45460938 93.70070313 12.11328125 92.89453125 C11.44762399 91.3237906 10.78093663 89.75348613 10.11328125 88.18359375 C8.03402013 83.26675274 6.10804833 78.31698546 4.25 73.3125 C3.70048462 71.97376295 3.14253679 70.63829838 2.5625 69.3125 C2.129375 68.3225 1.69625 67.3325 1.25 66.3125 C0.59 66.3125 -0.07 66.3125 -0.75 66.3125 Z " fill="#4F74AF" transform="translate(383.75,45.6875)"/>
</svg>
